<svg version="1.2" xmlns="http://www.w3.org/2000/svg" viewBox="0 0 446 422" width="446" height="422">
	<defs>
		<linearGradient id="g1" x2="1" gradientUnits="userSpaceOnUse" gradientTransform="matrix(446,0,0,783.862,0,0)">
			<stop offset="0" stop-color="#ffffff"/>
			<stop offset=".004" stop-color="#ffffff"/>
			<stop offset="1" stop-color="#ffffff"/>
		</linearGradient>
		<linearGradient id="g2" x2="1" gradientUnits="userSpaceOnUse" gradientTransform="matrix(233.149,0,0,375.236,49.101,20.66)">
			<stop offset="0" stop-color="#ffffff"/>
			<stop offset=".004" stop-color="#ffffff"/>
			<stop offset="1" stop-color="#ffffff"/>
		</linearGradient>
		<linearGradient id="g3" x2="1" gradientUnits="userSpaceOnUse" gradientTransform="matrix(162.391,0,0,329.074,231.003,66.821)">
			<stop offset="0" stop-color="#f9f9f9"/>
			<stop offset=".004" stop-color="#f9f9f9"/>
			<stop offset="1" stop-color="#ffffff"/>
		</linearGradient>
		<linearGradient id="g4" x2="1" gradientUnits="userSpaceOnUse" gradientTransform="matrix(-80.455,215.334,-19.525,-7.295,462.562,144.132)">
			<stop offset="0" stop-color="#000000"/>
			<stop offset=".479" stop-color="#ffffff"/>
			<stop offset="1" stop-color="#000000"/>
		</linearGradient>
		<linearGradient id="g5" x2="1" gradientUnits="userSpaceOnUse" gradientTransform="matrix(-49.693,159.134,-4.598,-1.436,561.435,236.128)">
			<stop offset="0" stop-color="#000000"/>
			<stop offset=".479" stop-color="#ffffff"/>
			<stop offset="1" stop-color="#000000"/>
		</linearGradient>
	</defs>
	<style>
		tspan { white-space:pre } 
		.s0 { mix-blend-mode: screen;fill: url(#g1) } 
		.s1 { mix-blend-mode: screen;fill: url(#g2) } 
		.s2 { mix-blend-mode: screen;fill: url(#g3) } 
		.s3 { opacity: .5;mix-blend-mode: screen;fill: url(#g4) } 
		.s4 { opacity: .5;mix-blend-mode: screen;fill: url(#g5) } 
	</style>
	<g id="BACKGROUND">
	</g>
	<g id="OBJECTS">
		<g id="&lt;Group&gt;">
			<g id="&lt;Group&gt;">
			</g>
			<g id="&lt;Group&gt;">
				<path id="&lt;Path&gt;" class="s0" d="m142.85 395.38l-29.83-2.07 83.71-273.6c14.04-45.88 48.35-75.3 84.87-72.77l29.83 2.06-83.72 273.6c-14.04 45.88-48.34 75.3-84.86 72.78z"/>
				<path id="&lt;Path&gt;" class="s1" d="m255.72 20.66c-51.56 0-97.21 33.32-112.92 82.42l-51.05 159.54-42.65 133.28c15.81 0 29.8-10.22 34.62-25.28l35.26-110.18 50.36-157.36c15.71-49.1 61.35-82.42 112.91-82.42z"/>
				<g id="&lt;Group&gt;">
					<path id="&lt;Path&gt;" class="s2" d="m337.09 66.82l-106.09 329.08h42.12c51.55 0 97.2-33.32 112.91-82.43 9.79-30.36 9.82-63.02 0.1-93.41z"/>
				</g>
				<path id="&lt;Path&gt;" class="s3" d="m209.56 45.58q0.05-0.05 0.1-0.1c-16.62 10.76-30.3 26.56-38.88 44.9-1.11 2.28-2.09 4.62-3.06 6.96-0.89 2.37-1.76 4.79-2.54 7.1l-4.78 13.99-9.21 28.11-8.81 28.23c-2.79 9.46-5.72 18.87-8.37 28.37-5.44 18.96-10.61 38.01-15.03 57.3l50.36-157.36c7.48-23.38 21.75-43.17 40.22-57.5z"/>
				<path id="&lt;Path&gt;" class="s4" d="m276.39 260.44l33.44-103.31q0 0 0 0c-5.98 13-11.19 26.25-16.13 39.58-2.55 6.65-4.8 13.39-7.21 20.08l-6.76 20.22-6.36 20.34c-1.97 6.84-4.04 13.63-5.86 20.51-3.76 13.72-7.26 27.52-10 41.57z"/>
			</g>
		</g>
		<g id="&lt;Group&gt;">
		</g>
		<g id="&lt;Group&gt;">
		</g>
	</g>
</svg>
